<svg width="32" height="32" viewBox="0 0 36 36" fill="none" xmlns="http://www.w3.org/2000/svg">
<g filter="url(#filter0_dd_345_1207362)">
<g clip-path="url(#clip0_345_1207362)">
<rect width="32" height="32" transform="matrix(1 0 0 -1 2 33)" fill="url(#paint0_linear_345_1207362)"/>
<g clip-path="url(#clip1_345_1207362)">
<g filter="url(#filter1_d_345_1207362)">
<path d="M21.1048 20.2304C20.9278 20.5035 20.6623 20.5365 20.5614 20.5382C20.4591 20.5327 20.188 20.5183 20.0014 20.2449L17.325 16.3298L15.8908 18.489L18.0649 21.6689C18.6348 22.5025 19.5629 23 20.5481 23L20.5866 22.9997C21.5867 22.9866 22.5125 22.4712 23.0622 21.6224L31 9.84078H28.1039L21.1048 20.2304Z" fill="white" fill-opacity="0.8"/>
<path d="M17.344 11.4618C17.4323 11.4494 17.7018 11.479 17.8907 11.7554L20.5153 15.5948L21.9492 13.436L19.8269 10.3314C19.2569 9.49786 18.3285 9 17.3437 9L17.3048 9.00034C16.3047 9.01377 15.3773 9.53229 14.8243 10.3862L7 22.1943H9.88051L16.7877 11.7696C16.9649 11.4958 17.2295 11.4635 17.344 11.4618Z" fill="white" fill-opacity="0.8"/>
</g>
</g>
</g>
</g>
<defs>
<filter id="filter0_dd_345_1207362" x="0" y="0" width="36" height="36" filterUnits="userSpaceOnUse" color-interpolation-filters="sRGB">
<feFlood flood-opacity="0" result="BackgroundImageFix"/>
<feColorMatrix in="SourceAlpha" type="matrix" values="0 0 0 0 0 0 0 0 0 0 0 0 0 0 0 0 0 0 127 0" result="hardAlpha"/>
<feOffset dy="1"/>
<feGaussianBlur stdDeviation="1"/>
<feComposite in2="hardAlpha" operator="out"/>
<feColorMatrix type="matrix" values="0 0 0 0 0.0533333 0 0 0 0 0.0693333 0 0 0 0 0.106667 0 0 0 0.24 0"/>
<feBlend mode="normal" in2="BackgroundImageFix" result="effect_dropShadow"/>
<feBlend mode="normal" in="SourceGraphic" in2="effect_dropShadow" result="shape"/>
</filter>
<filter id="filter1_d_345_1207362" x="2.11111" y="6.55556" width="33.7778" height="23.7778" filterUnits="userSpaceOnUse" color-interpolation-filters="sRGB">
<feFlood flood-opacity="0" result="BackgroundImageFix"/>
<feColorMatrix in="SourceAlpha" type="matrix" values="0 0 0 0 0 0 0 0 0 0 0 0 0 0 0 0 0 0 127 0" result="hardAlpha"/>
<feOffset dy="2.44444"/>
<feGaussianBlur stdDeviation="2.44444"/>
<feColorMatrix type="matrix" values="0 0 0 0 0.522127 0 0 0 0 0.111779 0 0 0 0 1 0 0 0 0.5 0"/>
<feBlend mode="normal" in2="BackgroundImageFix" result="effect1_dropShadow_345_1207362"/>
<feBlend mode="normal" in="BackgroundImageFix" in2="effect1_dropShadow_345_1207362" result="BackgroundImageFix"/>
<feBlend mode="normal" in="SourceGraphic" in2="BackgroundImageFix" result="shape"/>
</filter>
<linearGradient id="paint0_linear_345_1207362" x1="0" y1="0" x2="32" y2="32" gradientUnits="userSpaceOnUse">
<stop stop-color="#9C29FF"/>
<stop offset="1" stop-color="#04AFFF"/>
</linearGradient>
<clipPath id="clip0_345_1207362">
<rect x="2" y="1" width="32" height="32" rx="8" fill="white"/>
</clipPath>
<clipPath id="clip1_345_1207362">
<rect width="24" height="24" fill="white" transform="translate(6 5)"/>
</clipPath>
</defs>
</svg>
